<svg id="Calque_1" data-name="Calque 1" xmlns="http://www.w3.org/2000/svg" xmlns:xlink="http://www.w3.org/1999/xlink" viewBox="0 0 577.36 189.82"><defs><style>.cls-1{fill:#1e90ff;}.cls-2{fill:#fd3f92;}.cls-3{fill:url(#Dégradé_sans_nom_33);}.cls-4{fill:url(#Dégradé_sans_nom_121);}</style><linearGradient id="Dégradé_sans_nom_33" x1="1083.23" y1="502.77" x2="1032.52" y2="559.09" gradientUnits="userSpaceOnUse"><stop offset="0" stop-color="#1e90ff"/><stop offset="0.23" stop-color="#7770d4" stop-opacity="0.71"/><stop offset="0.4" stop-color="#b858b4" stop-opacity="0.5"/><stop offset="0.48" stop-color="#6277dd" stop-opacity="0.68"/><stop offset="0.52" stop-color="#4084ee" stop-opacity="0.88"/><stop offset="0.61" stop-color="#4482ec" stop-opacity="0.6"/><stop offset="0.63" stop-color="#547ce4" stop-opacity="0.63"/><stop offset="0.76" stop-color="#9c62c1" stop-opacity="0.79"/><stop offset="0.86" stop-color="#d04fa8" stop-opacity="0.9"/><stop offset="0.93" stop-color="#f14398" stop-opacity="0.97"/><stop offset="0.97" stop-color="#fd3f92"/></linearGradient><linearGradient id="Dégradé_sans_nom_121" x1="1233.53" y1="573.2" x2="1233.79" y2="599.47" gradientUnits="userSpaceOnUse"><stop offset="0" stop-color="#fff"/><stop offset="0.25" stop-color="#fafafa"/><stop offset="0.53" stop-color="#ededed"/><stop offset="0.83" stop-color="#d6d6d6"/><stop offset="1" stop-color="#c5c5c5"/></linearGradient></defs><rect class="cls-1" x="315.39" y="78.84" width="36.46" height="36.46" rx="7.29"/><rect class="cls-2" x="197.91" y="39.48" width="36.46" height="36.46" rx="7.29"/><rect class="cls-1" x="275.47" y="117.3" width="36.46" height="36.46" rx="7.29"/><rect class="cls-2" x="235.55" width="36.46" height="36.46" rx="7.29"/><path class="cls-3" d="M1029.36,531.68h21.88a7.29,7.29,0,0,1,7.29,7.29v21.88a7.29,7.29,0,0,1-7.29,7.29h-21.88a7.3,7.3,0,0,1-7.29-7.29V539A7.29,7.29,0,0,1,1029.36,531.68Zm39.34-42.62h21.87a7.3,7.3,0,0,1,7.3,7.29v21.88a7.29,7.29,0,0,1-7.3,7.29H1068.7a7.29,7.29,0,0,1-7.3-7.29V496.35A7.3,7.3,0,0,1,1068.7,489.06Z" transform="translate(-786.52 -452.12)"/><path class="cls-2" d="M1040.3,491.6h0a18.23,18.23,0,0,1,18.23,18.23h0a18.23,18.23,0,0,1-18.23,18.23h0a18.23,18.23,0,0,1-18.23-18.23h0A18.23,18.23,0,0,1,1040.3,491.6Z" transform="translate(-786.52 -452.12)"/><path class="cls-1" d="M1079.63,529h0a18.24,18.24,0,0,1,18.24,18.23h0a18.24,18.24,0,0,1-18.24,18.23h0a18.23,18.23,0,0,1-18.23-18.23h0A18.23,18.23,0,0,1,1079.63,529Z" transform="translate(-786.52 -452.12)"/><path class="cls-4" d="M1138.65,586.46a16.67,16.67,0,0,1-.53,5.08,55.21,55.21,0,0,1-2.77,5.58,39.27,39.27,0,0,1-3.11,5.2c-.38.46-1.32.68-2.81.68a11,11,0,0,1-2.34-.14,1.69,1.69,0,0,1-.75-.47,33.71,33.71,0,0,1-3.74-6.44,46.68,46.68,0,0,1-3.66,6.44c-.34.41-1.27.61-2.79.61a9,9,0,0,1-2.09-.14q-1.07-.33-3.59-5.08a58.23,58.23,0,0,1-3-6.24,16.2,16.2,0,0,1-.56-5.08,34.66,34.66,0,0,1,.22-5.3.7.7,0,0,1,.74-.61c.65,0,1.63,0,2.94.07s2.28.07,2.94.07c.32,0,.49.26.49.77s0,1.15,0,2.08,0,1.62,0,2.07c0,1.89,0,3.29.13,4.2a11.31,11.31,0,0,0,1.14,2.63c.73,1.42,1.18,2.12,1.35,2.12s.72-.69,1.4-2.08a20,20,0,0,0,1.09-2.61,20.58,20.58,0,0,0,.25-4.24c0-.46,0-1.16-.11-2.09s-.12-1.62-.12-2.08.16-.72.49-.72l2.36,0,.88,0H1123s0,0,0,0h.7c.54,0,1.33,0,2.36,0,.32,0,.47.29.47.72,0,.6,0,1.5-.1,2.71s-.11,2.11-.11,2.71a16,16,0,0,0,.17,3,25.91,25.91,0,0,0,1,2.56c.64,1.4,1.09,2.1,1.34,2.1s.73-.71,1.43-2.13a10.62,10.62,0,0,0,1.06-2.67q.09-.88.09-8.3c0-.54.14-.82.42-.82.66,0,1.64,0,3-.07s2.3-.07,3-.07q.57,0,.72.66A32.5,32.5,0,0,1,1138.65,586.46Z" transform="translate(-786.52 -452.12)"/><path class="cls-4" d="M1160.59,590.13q0,2.37-1.38,2.7c-.16,0-1.63.2-4.41.52q-2.5.3-7.49.72a3.24,3.24,0,0,0,1.81,2.32,5.86,5.86,0,0,0,2.81.66,7.5,7.5,0,0,0,3.81-1.13l1.62-1.12a6.93,6.93,0,0,1,1.5,2.39,9.37,9.37,0,0,1,1.05,2.74,1.05,1.05,0,0,1-.32.54q-2.6,3.07-8.06,3.07a10.76,10.76,0,0,1-8.18-3.26,12.16,12.16,0,0,1-3.19-8.83,13.41,13.41,0,0,1,2.85-8.84,9.61,9.61,0,0,1,7.79-3.56,8.85,8.85,0,0,1,6.94,3.28A11.51,11.51,0,0,1,1160.59,590.13Zm-7.45-1.42a3.84,3.84,0,0,0-.93-2.56,2.87,2.87,0,0,0-2.24-1.1,2.61,2.61,0,0,0-2.21,1.24,4.58,4.58,0,0,0-.81,2.7c0,.42.2.63.59.63a34,34,0,0,0,4.9-.54C1152.91,589,1153.14,588.88,1153.14,588.71Z" transform="translate(-786.52 -452.12)"/><path class="cls-4" d="M1186,591.4a13,13,0,0,1-2.56,8.23,8.57,8.57,0,0,1-7.11,3.51,6.88,6.88,0,0,1-5.15-2,.38.38,0,0,0-.25-.14c-.14,0-.28.29-.4.86s-.26.9-.43,1-2.27.12-6.07.12c-.89,0-1.34-.18-1.34-.54a2.9,2.9,0,0,1,0-.35q.43-3.72.43-14.2,0-10-.64-17.42l0-.25c0-.25.22-.39.66-.43s1.54-.13,3.7-.35c1.52-.15,2.75-.23,3.71-.23.26,0,.4.26.4.77s0,1.42-.11,2.42q-.12,1.85-.15,2.43-.1,2.33-.1,6.33c0,.49.11.73.34.73a.41.41,0,0,0,.32-.19,6.28,6.28,0,0,1,5-2.25,8.57,8.57,0,0,1,7.28,3.49A13.81,13.81,0,0,1,1186,591.4Zm-7.71-.26a5.11,5.11,0,0,0-1.08-3.29,3.47,3.47,0,0,0-2.83-1.35,3.34,3.34,0,0,0-2.82,1.35,6,6,0,0,0,0,6.67,3.51,3.51,0,0,0,2.9,1.33,3.44,3.44,0,0,0,2.87-1.38A5.26,5.26,0,0,0,1178.3,591.14Z" transform="translate(-786.52 -452.12)"/><path class="cls-4" d="M1222.07,569.6c0-.34-.06.18-.17,1.55q-.24,2.6-.37,6.66-.16,4.59-.17,10.45a134.61,134.61,0,0,0,.49,13.78c0,.3.05.49.05.56s-.11.28-.32.31q-.76.12-5.64.12c-.77,0-1.21-.17-1.32-.5l-.09-1.78a.69.69,0,0,0-.17-.37,1.38,1.38,0,0,0-.32.28,7.52,7.52,0,0,1-5.75,2.48,8.64,8.64,0,0,1-7.19-3.47,13.13,13.13,0,0,1-2.58-8.34,13.4,13.4,0,0,1,2.54-8.41,8.61,8.61,0,0,1,7.23-3.52,6,6,0,0,1,5,2.25c.2.25.34.38.42.38s.19-.21.19-.61c0-1.21,0-3-.08-5.39s-.09-4.18-.09-5.37c0-.45.12-.71.34-.78.91,0,2.16-.14,3.75-.28a31.09,31.09,0,0,0,3.77-.58C1221.91,569,1222.07,569.21,1222.07,569.6Zm-8,21.54a4.89,4.89,0,0,0-1.17-3.24,3.57,3.57,0,0,0-2.83-1.4,3.29,3.29,0,0,0-2.78,1.4,5.44,5.44,0,0,0-1,3.34,5,5,0,0,0,1,3.21,3.33,3.33,0,0,0,2.77,1.4,3.55,3.55,0,0,0,2.85-1.4A5.05,5.05,0,0,0,1214,591.14Z" transform="translate(-786.52 -452.12)"/><path class="cls-4" d="M1244.71,590.13q0,2.37-1.38,2.7c-.16,0-1.62.2-4.41.52q-2.51.3-7.49.72a3.24,3.24,0,0,0,1.81,2.32,5.86,5.86,0,0,0,2.81.66,7.5,7.5,0,0,0,3.81-1.13l1.62-1.12a6.93,6.93,0,0,1,1.5,2.39,9.37,9.37,0,0,1,1,2.74,1.05,1.05,0,0,1-.32.54q-2.6,3.07-8.06,3.07a10.76,10.76,0,0,1-8.18-3.26,12.16,12.16,0,0,1-3.19-8.83,13.41,13.41,0,0,1,2.85-8.84,9.61,9.61,0,0,1,7.79-3.56,8.85,8.85,0,0,1,6.94,3.28A11.51,11.51,0,0,1,1244.71,590.13Zm-7.45-1.42a3.84,3.84,0,0,0-.93-2.56,2.87,2.87,0,0,0-2.24-1.1,2.61,2.61,0,0,0-2.21,1.24,4.58,4.58,0,0,0-.81,2.7q0,.63.6.63a33.89,33.89,0,0,0,4.89-.54C1237,589,1237.26,588.88,1237.26,588.71Z" transform="translate(-786.52 -452.12)"/><path class="cls-4" d="M1259.51,583.9a1.16,1.16,0,0,1-.32.63,4.48,4.48,0,0,0-1.19-.16,3.51,3.51,0,0,0-2.11.61,2.28,2.28,0,0,0-1,2,3.64,3.64,0,0,0,1.08,2.09,22,22,0,0,1,2,2.55,7.17,7.17,0,0,1,1.09,3.82,8.14,8.14,0,0,1-.43,2.53,4.88,4.88,0,0,1-1.23,2.16,14.73,14.73,0,0,1-3.68,2.53,9.9,9.9,0,0,1-4.2,1.08c-.28,0-.91-.85-1.9-2.54a10.68,10.68,0,0,1-1.48-3.11.25.25,0,0,1,.23-.26l3-.61c1.24-.43,1.87-1.15,1.87-2.15a4,4,0,0,0-1.09-2.39c-1.29-1.58-2-2.42-2-2.51a6.51,6.51,0,0,1-1.08-3.56,7.29,7.29,0,0,1,3.23-6,10.14,10.14,0,0,1,6.19-2.18c.23,0,.79.84,1.69,2.52A13,13,0,0,1,1259.51,583.9Z" transform="translate(-786.52 -452.12)"/><path class="cls-4" d="M1270.45,592.1q0,1.71.06,5.1c0,2.26.07,3.95.07,5.08a.56.56,0,0,1-.54.58,21.54,21.54,0,0,1-3.25.14,21.77,21.77,0,0,1-3.28-.14c-.31-.06-.51-.16-.58-.3a3.77,3.77,0,0,1,0-.71c0-1.07,0-2.7.07-4.86s.06-3.79.06-4.89a94.58,94.58,0,0,0-.47-10.59,4.67,4.67,0,0,1,0-.49c0-.31.19-.47.57-.47s1,.05,1.82.14,1.43.14,1.84.14,1,0,1.86-.12,1.44-.11,1.85-.11.51.15.51.46c0,.07,0,.22,0,.45A103,103,0,0,0,1270.45,592.1Zm.55-17.41q0,4.08-4.17,4.08a4.35,4.35,0,0,1-3-1,3.87,3.87,0,0,1-1.28-3,3.83,3.83,0,0,1,1.32-3,4.24,4.24,0,0,1,2.92-1.08,4.14,4.14,0,0,1,2.87,1.1A3.83,3.83,0,0,1,1271,574.69Z" transform="translate(-786.52 -452.12)"/><path class="cls-4" d="M1295.76,596.77q0,6.68-2.56,9.58t-8.77,3a25.9,25.9,0,0,1-4.87-.63c-2.63-.53-3.94-1.16-3.94-1.88,0-.29.31-1.83.92-4.59.09-.44.25-.66.46-.66a1,1,0,0,1,.24.1,12.92,12.92,0,0,0,6.06,1.78,6.13,6.13,0,0,0,3-.85,2.92,2.92,0,0,0,1.83-2.53V598.5a7.42,7.42,0,0,1-5.58,2.25,8.08,8.08,0,0,1-6.57-3.16,12.62,12.62,0,0,1-.11-14.93,8,8,0,0,1,6.51-3.07,5.57,5.57,0,0,1,4.92,2.53c.23.34.38.51.47.51s.19-.28.19-.84c0-1.25.13-1.87.38-1.87s1.46.12,3.68.38,3.39.41,3.47.44a.57.57,0,0,1,.37.61c0,1.07,0,2.68-.1,4.82s-.1,3.75-.1,4.83q0,1,0,2.88C1295.75,595.17,1295.76,596.13,1295.76,596.77Zm-7.37-6.49a4.51,4.51,0,0,0-1-3,3.28,3.28,0,0,0-5.17,0,4.62,4.62,0,0,0-1,3,4.45,4.45,0,0,0,1,3,3.27,3.27,0,0,0,2.56,1.24,3.2,3.2,0,0,0,2.59-1.27A4.53,4.53,0,0,0,1288.39,590.28Z" transform="translate(-786.52 -452.12)"/><path class="cls-4" d="M1320.6,602.18a.65.65,0,0,1-.6.73,30.13,30.13,0,0,1-3.11.09,21.26,21.26,0,0,1-3.32-.14c-.42-.09-.64-.41-.64-1,0-.73,0-1.84.07-3.33s.06-2.6.06-3.35c0-.58,0-1.44,0-2.59s0-2,0-2.59c0-2.14-.85-3.21-2.54-3.21a3.48,3.48,0,0,0-1.93.8,2.38,2.38,0,0,0-1.2,1.75V602q0,.78-.66.87c-.49.06-1.51.09-3,.09a21.48,21.48,0,0,1-3.23-.14.71.71,0,0,1-.67-.77c0-1.22,0-3.06,0-5.51s0-4.3,0-5.53a39.9,39.9,0,0,0-.83-9.17,1.72,1.72,0,0,1,0-.35.51.51,0,0,1,.32-.51c.9-.11,2.09-.28,3.58-.52q3.39-.72,3.81-.72c.16,0,.28.52.36,1.58s.21,1.58.36,1.58c-.15,0,.61-.54,2.29-1.63a8.47,8.47,0,0,1,4.42-1.63,7.1,7.1,0,0,1,4.51,1.41,5.44,5.44,0,0,1,2,4.5v7.47c0,1,0,2.54,0,4.56S1320.6,601.17,1320.6,602.18Z" transform="translate(-786.52 -452.12)"/><path class="cls-4" d="M1343.65,590.13c0,1.58-.46,2.48-1.39,2.7-.15,0-1.62.2-4.4.52-1.68.2-4.17.44-7.49.72a3.24,3.24,0,0,0,1.81,2.32,5.86,5.86,0,0,0,2.81.66,7.5,7.5,0,0,0,3.81-1.13l1.61-1.12a6.93,6.93,0,0,1,1.5,2.39,9.21,9.21,0,0,1,1.06,2.74,1.14,1.14,0,0,1-.32.54q-2.6,3.07-8.07,3.07a10.73,10.73,0,0,1-8.17-3.26,12.17,12.17,0,0,1-3.2-8.83,13.41,13.41,0,0,1,2.86-8.84,9.6,9.6,0,0,1,7.79-3.56,8.88,8.88,0,0,1,6.94,3.28A11.51,11.51,0,0,1,1343.65,590.13Zm-7.45-1.42a3.8,3.8,0,0,0-.94-2.56,2.85,2.85,0,0,0-2.23-1.1,2.62,2.62,0,0,0-2.22,1.24,4.58,4.58,0,0,0-.81,2.7q0,.63.6.63a34.14,34.14,0,0,0,4.9-.54C1336,589,1336.2,588.88,1336.2,588.71Z" transform="translate(-786.52 -452.12)"/><path class="cls-4" d="M1360.1,588.26a.8.8,0,0,1-.91.91c-.27,0-.67,0-1.18,0s-.91-.06-1.16-.06a3.53,3.53,0,0,0-2.41.61,3.41,3.41,0,0,0-.64,2.46q0,1,0,3.06c0,1.36,0,2.38,0,3,0,.46,0,1.13.08,2s.09,1.57.09,2-.24.58-.71.63c-.68.06-1.72.09-3.13.09a28,28,0,0,1-3.23-.14.71.71,0,0,1-.7-.77c0-1.25,0-3.12,0-5.62s0-4.36,0-5.61a37.35,37.35,0,0,0-.92-9.07,2.88,2.88,0,0,1,0-.35.47.47,0,0,1,.32-.47c.78-.09,1.92-.26,3.43-.51,2.24-.49,3.4-.73,3.47-.73.25,0,.42.49.49,1.48s.19,1.47.38,1.47c-.2,0,.38-.41,1.75-1.23a7.62,7.62,0,0,1,3.93-1.23c.8,0,1.2.19,1.2.56s0,1.1-.13,1.93-.14,1.53-.15,1.92,0,1,0,1.8C1360.09,587.35,1360.1,588,1360.1,588.26Z" transform="translate(-786.52 -452.12)"/><path class="cls-1" d="M827.83,580.82,810.1,608.39v16.16h-6.3v-16l-17.28-27.69h7.16l12,19.76c.07.12.22.41.45.85s.51,1.06.86,1.83h.11a11.32,11.32,0,0,1,.54-1.18c.24-.45.53-1,.88-1.5l12.6-19.76Z" transform="translate(-786.52 -452.12)"/><path class="cls-1" d="M843.92,625.29q-8.52,0-13.59-4.38a14.56,14.56,0,0,1-5.08-11.61q0-7.83,5.25-12.26t14.32-4.45q8.58,0,13.4,4.3T863,608.82a15,15,0,0,1-5.2,12Q852.65,625.29,843.92,625.29Zm.45-4.21q6,0,9.16-3.16t3.21-8.92q0-5.89-3.23-9t-9.14-3.16q-5.93,0-9.38,3.29t-3.44,9a11.29,11.29,0,0,0,3.48,8.75Q838.53,621.08,844.37,621.08Z" transform="translate(-786.52 -452.12)"/><path class="cls-1" d="M903.9,624.55h-6.15v-4.94h-.15a12.23,12.23,0,0,1-4.87,4.26,16.1,16.1,0,0,1-7,1.42q-6.86,0-10.29-3.33T872,612V593.32h6.11v17.87q0,4.95,2.33,7.42c1.55,1.64,3.87,2.47,7,2.47a10.42,10.42,0,0,0,7.4-2.7,9.19,9.19,0,0,0,2.91-7.06v-18h6.15Z" transform="translate(-786.52 -452.12)"/><path class="cls-1" d="M912.71,622.21l2.92-3.85a24.82,24.82,0,0,0,4.91,2,18.62,18.62,0,0,0,5.17.69,12.1,12.1,0,0,0,6-1.19,3.88,3.88,0,0,0,2-3.57,3.94,3.94,0,0,0-1.82-3.25,15.1,15.1,0,0,0-5.68-2.12q-7.2-1.5-9.86-3.77a7.08,7.08,0,0,1-2.66-5.59,7.67,7.67,0,0,1,3.56-6.42q3.56-2.58,9.93-2.58a25.77,25.77,0,0,1,5.85.64,22.7,22.7,0,0,1,5.66,2.2L936,599.21a23.22,23.22,0,0,0-4.71-1.88,17.18,17.18,0,0,0-4.22-.53,11.64,11.64,0,0,0-5.66,1.11,3.52,3.52,0,0,0-1.95,3.22,3.41,3.41,0,0,0,2,3.17,26.5,26.5,0,0,0,6.47,2q5.85,1.29,8.75,3.59a7.3,7.3,0,0,1,2.9,6,7.84,7.84,0,0,1-3.76,6.85q-3.77,2.52-10.33,2.52a28.33,28.33,0,0,1-6.77-.8A25.6,25.6,0,0,1,912.71,622.21Z" transform="translate(-786.52 -452.12)"/><path class="cls-1" d="M945.28,622.21l2.93-3.85a24.82,24.82,0,0,0,4.91,2,18.62,18.62,0,0,0,5.17.69,12.1,12.1,0,0,0,6-1.19,4,4,0,0,0,.23-6.82,15.17,15.17,0,0,0-5.68-2.12q-7.2-1.5-9.86-3.77a7.05,7.05,0,0,1-2.66-5.59,7.65,7.65,0,0,1,3.56-6.42q3.55-2.58,9.93-2.58a25.77,25.77,0,0,1,5.85.64,22.7,22.7,0,0,1,5.66,2.2l-2.74,3.78a23.15,23.15,0,0,0-4.7-1.88,17.18,17.18,0,0,0-4.22-.53,11.64,11.64,0,0,0-5.66,1.11,3.52,3.52,0,0,0-2,3.22,3.41,3.41,0,0,0,2,3.17,26.39,26.39,0,0,0,6.46,2q5.85,1.29,8.76,3.59a7.32,7.32,0,0,1,2.9,6,7.82,7.82,0,0,1-3.77,6.85q-3.76,2.52-10.32,2.52a28.33,28.33,0,0,1-6.77-.8A25.68,25.68,0,0,1,945.28,622.21Z" transform="translate(-786.52 -452.12)"/><path class="cls-1" d="M1012.31,610.07H985.17q.15,5.26,3.43,8.12t9.2,2.86a22.07,22.07,0,0,0,5.2-.63,21.41,21.41,0,0,0,5.15-2L1011,622a28.63,28.63,0,0,1-6.52,2.5,30.24,30.24,0,0,1-7.16.8q-8.7,0-13.57-4.21t-4.92-11.75a15.75,15.75,0,0,1,4.9-12.14q4.92-4.61,12.8-4.6,7.5,0,11.64,4t4.14,11ZM1006,606a9,9,0,0,0-2.58-6.76,9.79,9.79,0,0,0-7-2.42,11.42,11.42,0,0,0-7.44,2.48,10.42,10.42,0,0,0-3.73,6.7Z" transform="translate(-786.52 -452.12)"/><path class="cls-1" d="M1039.94,582.4a17.77,17.77,0,0,0-1.89-.39,11.38,11.38,0,0,0-1.78-.13,6.84,6.84,0,0,0-4.69,1.38,5.11,5.11,0,0,0-1.54,4v6h9v4.27h-9v27h-6.11v-27h-6.56v-4.27h6.56V587a8.12,8.12,0,0,1,3.34-6.91q3.33-2.49,9.15-2.49a18.3,18.3,0,0,1,2.58.17,20.14,20.14,0,0,1,2.4.5Z" transform="translate(-786.52 -452.12)"/><path class="cls-2" d="M850.87,585.32h-7v-3.45h-.09a7.81,7.81,0,0,1-7.06,4,7.94,7.94,0,0,1-5.35-1.91,6.66,6.66,0,0,1-2.24-5.35,7.18,7.18,0,0,1,2.22-5.44q2.2-2.12,6.92-2.74l5.65-.75v-.47a3.12,3.12,0,0,0-1.1-2.59,4.75,4.75,0,0,0-3-.88,12.61,12.61,0,0,0-3.29.49,15.66,15.66,0,0,0-3.69,1.57l-2.51-4.38a19.64,19.64,0,0,1,4.89-2.07,20.42,20.42,0,0,1,5.28-.65q5.37,0,7.9,2.56t2.53,7.68Zm-7-9.75V574l-4.36.56a4.77,4.77,0,0,0-2.71,1.09,2.86,2.86,0,0,0-.9,2.17,2.68,2.68,0,0,0,.88,2.07,3.38,3.38,0,0,0,2.38.81,4.4,4.4,0,0,0,3.4-1.44A5.21,5.21,0,0,0,843.91,575.57Z" transform="translate(-786.52 -452.12)"/><path class="cls-2" d="M879.91,585.32h-7.38V572a7.22,7.22,0,0,0-1-4.18,3.43,3.43,0,0,0-3-1.4,3.94,3.94,0,0,0-3.16,1.48,5.6,5.6,0,0,0-1.24,3.75v13.69h-7.41v-24h7.41v3.79h.09a9.1,9.1,0,0,1,3.26-3.29,8.81,8.81,0,0,1,4.45-1.09,7.22,7.22,0,0,1,6,2.47q2,2.47,2,7.42Z" transform="translate(-786.52 -452.12)"/><path class="cls-2" d="M889.52,558a4.34,4.34,0,0,1-3.14-1.17,4.12,4.12,0,0,1,0-5.85,4.94,4.94,0,0,1,6.29,0,4.19,4.19,0,0,1,0,5.89A4.42,4.42,0,0,1,889.52,558Zm3.66,27.31h-7.41v-24h7.41Z" transform="translate(-786.52 -452.12)"/><path class="cls-2" d="M897,583.23l3-4.92a12.73,12.73,0,0,0,2.88,1.62,9.79,9.79,0,0,0,3.7.68,4.67,4.67,0,0,0,2.35-.53,1.69,1.69,0,0,0,.91-1.56,1.51,1.51,0,0,0-.67-1.3,7.8,7.8,0,0,0-2.66-.9,15,15,0,0,1-6.49-2.65,6.09,6.09,0,0,1-2-4.9,7,7,0,0,1,2.91-5.85,11.57,11.57,0,0,1,7.14-2.19,15.22,15.22,0,0,1,4.2.57A13.55,13.55,0,0,1,916,563l-2.79,4.76a12.7,12.7,0,0,0-2.72-1.35,8.22,8.22,0,0,0-2.65-.43,4.39,4.39,0,0,0-2.31.54,1.6,1.6,0,0,0-.88,1.38,1.47,1.47,0,0,0,.87,1.42,14.56,14.56,0,0,0,3.23.9c2.79.57,4.77,1.44,6,2.64a6.59,6.59,0,0,1,1.78,4.84,7.3,7.3,0,0,1-2.78,5.94,11.3,11.3,0,0,1-7.37,2.26,16.91,16.91,0,0,1-9.3-2.67Z" transform="translate(-786.52 -452.12)"/><path class="cls-2" d="M941.27,582.53h-.1v2.79h-7.4V549.79h7.4v15.14h.1a9.08,9.08,0,0,1,3.31-3.14,9.28,9.28,0,0,1,4.49-1.06,8.54,8.54,0,0,1,7.15,3.19q2.5,3.18,2.51,8.72,0,6-2.94,9.63A9.56,9.56,0,0,1,948,585.9a8.56,8.56,0,0,1-3.88-.84A7.47,7.47,0,0,1,941.27,582.53Zm-.21-10.13v2.46a5.64,5.64,0,0,0,1.33,3.85,4.36,4.36,0,0,0,3.43,1.52,4.53,4.53,0,0,0,3.92-2,9.43,9.43,0,0,0,1.4-5.54,7.53,7.53,0,0,0-1.28-4.65,4.31,4.31,0,0,0-3.65-1.68,4.72,4.72,0,0,0-3.69,1.67A6.34,6.34,0,0,0,941.06,572.4Z" transform="translate(-786.52 -452.12)"/><path class="cls-2" d="M985.1,575.43H969.44a5.2,5.2,0,0,0,1.75,3.86,6.6,6.6,0,0,0,4.3,1.27,9.61,9.61,0,0,0,2.84-.62,12.16,12.16,0,0,0,3.53-2l3.28,4.2a17.09,17.09,0,0,1-5.06,2.83,17.46,17.46,0,0,1-5.74.89q-5.82,0-9-3.22t-3.22-9a13.11,13.11,0,0,1,3.4-9.35,11.31,11.31,0,0,1,8.6-3.61,10.78,10.78,0,0,1,8,3q3,3,3,8.76Zm-6.87-4.55a6,6,0,0,0-1-4,4,4,0,0,0-3.13-1.19,4.05,4.05,0,0,0-3.08,1.39,6.43,6.43,0,0,0-1.59,3.77Z" transform="translate(-786.52 -452.12)"/><path class="cls-2" d="M1012.68,585.32h-7.38V572a7.14,7.14,0,0,0-1-4.18,3.42,3.42,0,0,0-3-1.4,3.94,3.94,0,0,0-3.17,1.48,5.6,5.6,0,0,0-1.24,3.75v13.69H989.5v-24h7.41v3.79H997a9.1,9.1,0,0,1,3.26-3.29,8.84,8.84,0,0,1,4.45-1.09,7.22,7.22,0,0,1,6,2.47q2,2.47,2,7.42Z" transform="translate(-786.52 -452.12)"/><text x="-786.52" y="-452.12"/><text x="-786.52" y="-452.12"/><text x="-786.52" y="-452.12"/><text x="-786.52" y="-452.12"/></svg>